<svg xmlns="http://www.w3.org/2000/svg" xmlns:xlink="http://www.w3.org/1999/xlink" width="93" viewBox="0 0 69.75 36.750001" height="49" preserveAspectRatio="xMidYMid meet"><defs><clipPath id="40a0c896d7"><path d="M 33 12 L 64.246094 12 L 64.246094 25 L 33 25 Z M 33 12 " clip-rule="nonzero"></path></clipPath><clipPath id="938d3e5728"><path d="M 5.183594 12 L 31 12 L 31 25 L 5.183594 25 Z M 5.183594 12 " clip-rule="nonzero"></path></clipPath><clipPath id="69b2fcb3ec"><path d="M 37 2.578125 L 40 2.578125 L 40 8 L 37 8 Z M 37 2.578125 " clip-rule="nonzero"></path></clipPath><clipPath id="163f3ab405"><path d="M 30 2.578125 L 32 2.578125 L 32 8 L 30 8 Z M 30 2.578125 " clip-rule="nonzero"></path></clipPath><clipPath id="53124a6ae7"><path d="M 30.109375 29 L 31.878906 29 L 31.878906 33.972656 L 30.109375 33.972656 Z M 30.109375 29 " clip-rule="nonzero"></path></clipPath><clipPath id="a64fdf3200"><path d="M 37.550781 29 L 39.320312 29 L 39.320312 33.972656 L 37.550781 33.972656 Z M 37.550781 29 " clip-rule="nonzero"></path></clipPath></defs><g clip-path="url(#40a0c896d7)"><path fill="#000000" d="M 44.464844 18.445312 L 44.417969 19.507812 L 41.535156 18.417969 L 43.835938 18.515625 L 43.886719 17.449219 L 46.765625 18.539062 Z M 64.246094 16.394531 C 63.855469 17.09375 63.113281 17.566406 62.261719 17.566406 L 50.703125 17.566406 L 50.703125 17.105469 L 48.097656 17.105469 L 48.097656 15.703125 C 48.097656 14.75 47.328125 13.976562 46.375 13.976562 L 41.40625 13.976562 L 41.40625 13.6875 C 41.40625 13.027344 40.871094 12.492188 40.214844 12.492188 C 39.554688 12.492188 39.019531 13.027344 39.019531 13.6875 L 39.019531 15.203125 L 34.019531 15.203125 C 33.703125 15.203125 33.449219 15.457031 33.449219 15.773438 C 33.449219 16.089844 33.703125 16.34375 34.019531 16.34375 L 39.019531 16.34375 L 39.019531 20.261719 L 34.039062 20.261719 C 33.734375 20.261719 33.472656 20.492188 33.453125 20.792969 C 33.429688 21.125 33.691406 21.402344 34.019531 21.402344 L 39.019531 21.402344 L 39.019531 22.917969 C 39.019531 23.578125 39.554688 24.117188 40.214844 24.117188 C 40.871094 24.117188 41.40625 23.578125 41.40625 22.917969 L 41.40625 22.628906 L 46.375 22.628906 C 47.328125 22.628906 48.097656 21.855469 48.097656 20.902344 L 48.097656 19.5 L 50.703125 19.5 L 50.703125 19.039062 L 62.203125 19.039062 C 62.953125 19.039062 63.652344 18.824219 64.246094 18.449219 L 64.246094 16.394531 " fill-opacity="1" fill-rule="nonzero"></path></g><g clip-path="url(#938d3e5728)"><path fill="#000000" d="M 26.539062 19.953125 C 26.539062 20.113281 26.410156 20.246094 26.25 20.246094 C 26.089844 20.246094 25.957031 20.113281 25.957031 19.953125 L 25.957031 16.652344 C 25.957031 16.492188 26.089844 16.359375 26.25 16.359375 C 26.410156 16.359375 26.539062 16.492188 26.539062 16.652344 Z M 25.339844 19.953125 C 25.339844 20.113281 25.210938 20.246094 25.050781 20.246094 C 24.886719 20.246094 24.757812 20.113281 24.757812 19.953125 L 24.757812 16.652344 C 24.757812 16.492188 24.886719 16.359375 25.050781 16.359375 C 25.210938 16.359375 25.339844 16.492188 25.339844 16.652344 Z M 24.140625 19.953125 C 24.140625 20.113281 24.007812 20.246094 23.847656 20.246094 C 23.6875 20.246094 23.558594 20.113281 23.558594 19.953125 L 23.558594 16.652344 C 23.558594 16.492188 23.6875 16.359375 23.847656 16.359375 C 24.007812 16.359375 24.140625 16.492188 24.140625 16.652344 Z M 29.214844 12.492188 C 28.554688 12.492188 28.023438 13.027344 28.023438 13.6875 L 28.023438 13.976562 L 23.050781 13.976562 C 22.101562 13.976562 21.328125 14.75 21.328125 15.703125 L 21.328125 17.105469 L 18.722656 17.105469 L 18.722656 17.566406 L 7.222656 17.566406 C 6.476562 17.566406 5.777344 17.78125 5.183594 18.15625 L 5.183594 20.210938 C 5.570312 19.511719 6.316406 19.039062 7.167969 19.039062 L 18.722656 19.039062 L 18.722656 19.5 L 21.328125 19.5 L 21.328125 20.902344 C 21.328125 21.855469 22.101562 22.628906 23.050781 22.628906 L 28.023438 22.628906 L 28.023438 22.917969 C 28.023438 23.578125 28.554688 24.117188 29.214844 24.117188 C 29.875 24.117188 30.410156 23.578125 30.410156 22.917969 L 30.410156 13.6875 C 30.410156 13.027344 29.875 12.492188 29.214844 12.492188 " fill-opacity="1" fill-rule="nonzero"></path></g><g clip-path="url(#69b2fcb3ec)"><path fill="#000000" d="M 37.839844 7.582031 C 37.8125 7.582031 37.789062 7.578125 37.765625 7.574219 C 37.617188 7.53125 37.527344 7.378906 37.566406 7.226562 L 38.738281 2.84375 C 38.777344 2.691406 38.933594 2.601562 39.082031 2.644531 C 39.230469 2.683594 39.320312 2.835938 39.28125 2.988281 L 38.109375 7.375 C 38.074219 7.5 37.960938 7.582031 37.839844 7.582031 " fill-opacity="1" fill-rule="nonzero"></path></g><path fill="#000000" d="M 41.597656 10.152344 C 41.527344 10.152344 41.453125 10.125 41.398438 10.070312 C 41.289062 9.960938 41.289062 9.78125 41.398438 9.671875 L 44.601562 6.460938 C 44.710938 6.351562 44.886719 6.351562 44.996094 6.460938 C 45.105469 6.570312 45.105469 6.75 44.996094 6.859375 L 41.796875 10.070312 C 41.742188 10.125 41.667969 10.152344 41.597656 10.152344 " fill-opacity="1" fill-rule="nonzero"></path><g clip-path="url(#163f3ab405)"><path fill="#000000" d="M 31.589844 7.582031 C 31.46875 7.582031 31.351562 7.5 31.320312 7.375 L 30.148438 2.988281 C 30.109375 2.835938 30.195312 2.683594 30.347656 2.644531 C 30.496094 2.601562 30.648438 2.691406 30.691406 2.84375 L 31.863281 7.226562 C 31.902344 7.378906 31.8125 7.53125 31.664062 7.574219 C 31.640625 7.578125 31.613281 7.582031 31.589844 7.582031 " fill-opacity="1" fill-rule="nonzero"></path></g><path fill="#000000" d="M 27.832031 10.152344 C 27.757812 10.152344 27.6875 10.125 27.632812 10.070312 L 24.433594 6.859375 C 24.320312 6.75 24.320312 6.570312 24.433594 6.460938 C 24.542969 6.351562 24.71875 6.351562 24.828125 6.460938 L 28.03125 9.671875 C 28.140625 9.78125 28.140625 9.960938 28.03125 10.070312 C 27.976562 10.125 27.902344 10.152344 27.832031 10.152344 " fill-opacity="1" fill-rule="nonzero"></path><g clip-path="url(#53124a6ae7)"><path fill="#000000" d="M 31.589844 29.023438 C 31.613281 29.023438 31.640625 29.027344 31.664062 29.03125 C 31.8125 29.074219 31.902344 29.226562 31.863281 29.378906 L 30.691406 33.761719 C 30.648438 33.914062 30.496094 34.003906 30.347656 33.960938 C 30.195312 33.921875 30.109375 33.769531 30.148438 33.617188 L 31.320312 29.230469 C 31.351562 29.105469 31.46875 29.023438 31.589844 29.023438 " fill-opacity="1" fill-rule="nonzero"></path></g><path fill="#000000" d="M 27.832031 26.453125 C 27.902344 26.453125 27.976562 26.480469 28.03125 26.535156 C 28.140625 26.648438 28.140625 26.824219 28.03125 26.933594 L 24.828125 30.144531 C 24.71875 30.253906 24.542969 30.253906 24.433594 30.144531 C 24.320312 30.035156 24.320312 29.855469 24.433594 29.746094 L 27.632812 26.535156 C 27.6875 26.480469 27.757812 26.453125 27.832031 26.453125 " fill-opacity="1" fill-rule="nonzero"></path><g clip-path="url(#a64fdf3200)"><path fill="#000000" d="M 37.839844 29.023438 C 37.960938 29.023438 38.074219 29.105469 38.109375 29.230469 L 39.28125 33.617188 C 39.320312 33.769531 39.230469 33.921875 39.082031 33.960938 C 38.933594 34.003906 38.777344 33.914062 38.738281 33.761719 L 37.566406 29.378906 C 37.527344 29.226562 37.617188 29.074219 37.765625 29.03125 C 37.789062 29.027344 37.8125 29.023438 37.839844 29.023438 " fill-opacity="1" fill-rule="nonzero"></path></g><path fill="#000000" d="M 41.597656 26.453125 C 41.667969 26.453125 41.742188 26.480469 41.796875 26.535156 L 44.996094 29.746094 C 45.105469 29.855469 45.105469 30.035156 44.996094 30.144531 C 44.886719 30.253906 44.710938 30.253906 44.601562 30.144531 L 41.398438 26.933594 C 41.289062 26.824219 41.289062 26.648438 41.398438 26.535156 C 41.453125 26.480469 41.527344 26.453125 41.597656 26.453125 " fill-opacity="1" fill-rule="nonzero"></path></svg>